<?xml version="1.0" encoding="utf-8"?>
<!-- Generator: Adobe Illustrator 17.0.0, SVG Export Plug-In . SVG Version: 6.00 Build 0)  -->
<!DOCTYPE svg PUBLIC "-//W3C//DTD SVG 1.1//EN" "http://www.w3.org/Graphics/SVG/1.1/DTD/svg11.dtd">
<svg version="1.1" id="Layer_1" xmlns="http://www.w3.org/2000/svg" xmlns:xlink="http://www.w3.org/1999/xlink" x="0px" y="0px"
	 width="326.456px" height="149.165px" viewBox="0 0 326.456 149.165" enable-background="new 0 0 326.456 149.165"
	 xml:space="preserve">
<g>
	<path fill="#585DA9" d="M194.422,145.413c0.693,0,1.043,0.349,1.043,1.042v1.25h-91.28v-1.042c0-0.347,0.104-0.642,0.313-0.886
		c0.208-0.243,0.381-0.433,0.521-0.573l52.517-53.35c4.236-4.376,8.266-8.649,12.087-12.817c3.82-4.168,7.172-8.404,10.055-12.712
		c2.883-4.306,5.158-8.753,6.826-13.337c1.666-4.585,2.5-9.482,2.5-14.692c0-6.32-1.078-11.757-3.23-16.307
		c-2.154-4.549-5.001-8.284-8.544-11.202c-3.543-2.917-7.573-5.07-12.087-6.46c-4.517-1.389-9.135-2.084-13.859-2.084
		c-5.418,0-10.403,0.833-14.953,2.501c-4.55,1.667-8.562,4.012-12.035,7.033c-3.474,3.022-6.34,6.617-8.596,10.785
		c-2.258,4.168-3.803,8.789-4.637,13.859c-0.208,1.112-0.765,1.667-1.667,1.667h-1.042c0.764-5.835,2.344-11.097,4.741-15.786
		c2.396-4.689,5.47-8.665,9.222-11.931c3.751-3.264,8.075-5.783,12.973-7.554s10.228-2.657,15.995-2.657
		c5.002,0,9.916,0.729,14.745,2.188c4.827,1.459,9.117,3.735,12.869,6.825c3.752,3.092,6.789,7.034,9.117,11.827
		c2.326,4.793,3.49,10.56,3.49,17.297c0,5.559-0.885,10.732-2.656,15.526c-1.771,4.793-4.152,9.378-7.138,13.754
		c-2.988,4.376-6.444,8.667-10.368,12.869c-3.925,4.204-8.041,8.492-12.348,12.869L107.52,145.83
		c1.458-0.139,3.142-0.243,5.054-0.313c1.91-0.068,4.046-0.104,6.408-0.104H194.422z"/>
	<path fill="#585DA9" d="M207.402,144.273c0-1.287,0.44-2.395,1.323-3.325c0.881-0.929,1.966-1.394,3.253-1.394
		s2.396,0.465,3.324,1.394c0.93,0.93,1.395,2.038,1.395,3.325s-0.465,2.372-1.395,3.253c-0.929,0.881-2.037,1.323-3.324,1.323
		s-2.372-0.441-3.253-1.323C207.843,146.646,207.402,145.561,207.402,144.273z"/>
	<path fill="#585DA9" d="M326.456,74.766c0,12.782-1.372,23.845-4.116,33.188c-2.744,9.344-6.46,17.073-11.149,23.185
		c-4.688,6.114-10.177,10.646-16.463,13.598c-6.288,2.954-12.939,4.429-19.954,4.429c-7.018,0-13.669-1.475-19.955-4.429
		c-6.287-2.952-11.774-7.484-16.463-13.598c-4.689-6.112-8.406-13.841-11.149-23.185c-2.745-9.342-4.116-20.405-4.116-33.188
		c0-12.781,1.371-23.844,4.116-33.188c2.743-9.342,6.46-17.089,11.149-23.236c4.688-6.148,10.176-10.715,16.463-13.703
		c6.286-2.986,12.938-4.48,19.955-4.48c7.015,0,13.666,1.495,19.954,4.48c6.286,2.988,11.774,7.555,16.463,13.703
		c4.689,6.147,8.405,13.894,11.149,23.236C325.084,50.921,326.456,61.985,326.456,74.766z M323.747,74.766
		c0-12.504-1.303-23.305-3.907-32.406c-2.605-9.1-6.132-16.62-10.576-22.56c-4.447-5.939-9.639-10.35-15.578-13.233
		c-5.939-2.882-12.244-4.324-18.912-4.324c-6.669,0-12.991,1.442-18.965,4.324c-5.976,2.883-11.201,7.294-15.683,13.233
		c-4.48,5.939-8.022,13.46-10.628,22.56c-2.605,9.101-3.907,19.902-3.907,32.406s1.302,23.307,3.907,32.406
		c2.605,9.101,6.147,16.604,10.628,22.507c4.481,5.905,9.707,10.282,15.683,13.129c5.974,2.849,12.296,4.272,18.965,4.272
		c6.668,0,12.973-1.423,18.912-4.272c5.939-2.848,11.131-7.224,15.578-13.129c4.444-5.903,7.971-13.406,10.576-22.507
		C322.444,98.072,323.747,87.27,323.747,74.766z"/>
</g>
<path fill="#585DA9" d="M74.441,39.573c9.787,0,17.721,7.934,17.721,17.721c0,9.787-7.935,17.721-17.721,17.721
	c-9.787,0-17.721-7.935-17.721-17.721C56.72,47.507,64.654,39.573,74.441,39.573"/>
<path fill="#585DA9" d="M0,0l24.921,0.016l18.812,43.077c-1.677,3.939-2.606,8.273-2.606,12.824c0,14.2,9.037,26.289,21.672,30.835
	l11.088,25.391l11.089-25.39c12.636-4.544,21.674-16.634,21.674-30.836c0-4.551-0.929-8.885-2.606-12.824l18.813-43.077L147.777,0
	L84.95,147.776H62.826L0,0z"/>
<g>
</g>
<g>
</g>
<g>
</g>
<g>
</g>
<g>
</g>
<g>
</g>
</svg>
