<?xml version="1.0" encoding="iso-8859-1"?>
<!-- Generator: Adobe Illustrator 16.0.0, SVG Export Plug-In . SVG Version: 6.00 Build 0)  -->
<!DOCTYPE svg PUBLIC "-//W3C//DTD SVG 1.1//EN" "http://www.w3.org/Graphics/SVG/1.1/DTD/svg11.dtd">
<svg version="1.1" id="Capa_1" xmlns="http://www.w3.org/2000/svg" xmlns:xlink="http://www.w3.org/1999/xlink" x="0px" y="0px"
     width="27.473px" height="27.472px" viewBox="0 0 27.473 27.472" style="enable-background:new 0 0 27.473 27.472;"
     xml:space="preserve">
    <g>
        <path d="M26.722,0.88c-0.466-0.269-1.034-0.269-1.5,0L16.26,6.054H3.5C1.569,6.054,0,7.546,0,9.38v5.361
                 c0,1.834,1.569,3.326,3.5,3.326h0.328l4.986,8.728l4.342-2.479l-3.568-6.246H17c0.056,0,0.111-0.001,0.168-0.004l8.055,4.648
                 c0.232,0.135,0.49,0.2,0.75,0.2s0.518-0.065,0.75-0.2c0.465-0.269,0.75-0.764,0.75-1.3V2.18C27.472,1.643,27.186,1.148,26.722,0.88
                 z M24.472,18.816l-6.246-3.605c-0.229-0.133-0.487-0.2-0.75-0.2c-0.112,0-0.226,0.013-0.335,0.037
                 c-0.061,0.015-0.107,0.021-0.143,0.021h-4.014V9.054h3.678c0.264,0,0.521-0.069,0.75-0.201l7.06-4.076V18.816z"/>
    </g>
</svg>
