<?xml version="1.0" encoding="iso-8859-1"?>
<!-- Generator: Adobe Illustrator 18.0.0, SVG Export Plug-In . SVG Version: 6.00 Build 0)  -->
<!DOCTYPE svg PUBLIC "-//W3C//DTD SVG 1.1//EN" "http://www.w3.org/Graphics/SVG/1.1/DTD/svg11.dtd">
<svg version="1.1" id="Capa_1" xmlns="http://www.w3.org/2000/svg" xmlns:xlink="http://www.w3.org/1999/xlink" x="0px" y="0px"
	 viewBox="0 0 251.302 251.302" style="enable-background:new 0 0 251.302 251.302;" xml:space="preserve">
<path d="M56.907,130.889c0.676,7.869,2.021,16.637-2.922,20.91c-4.947,4.269-6.069,4.491-1.12,14.613
	c4.944,10.107,10.123,24.497,23.386,24.951c13.258,0.457,19.768,0.685,19.55-2.131c-0.222-2.817-7.16-6.186-14.838-6.807
	c-2.382-0.116-8.064-1.433-10.566-8.597c-3.893-11.163-1.12-12.813,8.993-16.637c10.119-3.82,14.833-4.716,24.055-11.462
	c6.965,1.797,42.713,15.508,61.812,4.712c-0.676,3.154,4.218,12.574,9.665,24.503c7.426,11.02,10.342,17.189,20.689,16.689
	c10.344-0.497,17.08,1.094,17.08-2.401c0-3.493-5.846-7.711-12.359-6.131c-4.051,0.222-11.023-3.436-13.494-16.467
	c-2.189-11.543-3.464-36.507,7.121-49.479l0.031-0.007c1.081,3.036,2.873,6.307,5.704,9.827
	c9.641-19.041,22.188-18.199,22.188-18.199h0.004h0.013c31.308,3.928,32.604-2.386,26.53-7.111
	c-6.061-4.722-8.537-6.962-8.985-11.461c-0.458-4.496-3.021-15.231-13.943-16.183c0,0-24.426-32.262-19.059-0.142
	c-6.291,1.124-6.521,2.614-13.48,4.862c-6.977,2.242-33.038-0.482-50.856-6.29C58.134,47.782-7.597,165.726,0.709,172.254
	C9.032,178.768,35.335,160.339,56.907,130.889z"/>

</svg>
