<?xml version="1.0" encoding="UTF-8" standalone="no"?>
<!-- Created with Inkscape (http://www.inkscape.org/) -->

<svg
   xmlns:dc="http://purl.org/dc/elements/1.1/"
   xmlns:cc="http://creativecommons.org/ns#"
   xmlns:rdf="http://www.w3.org/1999/02/22-rdf-syntax-ns#"
   xmlns:svg="http://www.w3.org/2000/svg"
   xmlns="http://www.w3.org/2000/svg"
   xmlns:sodipodi="http://sodipodi.sourceforge.net/DTD/sodipodi-0.dtd"
   xmlns:inkscape="http://www.inkscape.org/namespaces/inkscape"
   id="svg2"
   version="1.1"
   inkscape:version="0.91 r13725"
   xml:space="preserve"
   width="715.71478"
   height="142.57755"
   viewBox="0 0 715.7148 142.57754"
   sodipodi:docname="logo-virtuagora.svg"><metadata
     id="metadata8"><rdf:RDF><cc:Work
         rdf:about=""><dc:format>image/svg+xml</dc:format><dc:type
           rdf:resource="http://purl.org/dc/dcmitype/StillImage" /><dc:title /></cc:Work></rdf:RDF></metadata><defs
     id="defs6" /><sodipodi:namedview
     pagecolor="#ffffff"
     bordercolor="#666666"
     borderopacity="1"
     objecttolerance="10"
     gridtolerance="10"
     guidetolerance="10"
     inkscape:pageopacity="0"
     inkscape:pageshadow="2"
     inkscape:window-width="1920"
     inkscape:window-height="1059"
     id="namedview4"
     showgrid="false"
     inkscape:zoom="0.74320345"
     inkscape:cx="190.11763"
     inkscape:cy="162.79182"
     inkscape:window-x="1366"
     inkscape:window-y="21"
     inkscape:window-maximized="1"
     inkscape:current-layer="layer3"
     fit-margin-top="0"
     fit-margin-left="0"
     fit-margin-right="0"
     fit-margin-bottom="0" /><g
     inkscape:groupmode="layer"
     id="layer3"
     inkscape:label="virtuágora final 1"
     transform="translate(-386.23713,-447.73055)"
     style="display:inline"><g
       transform="matrix(1.25,0,0,-1.25,0,1052.3623)"
       id="g4418"
       style="fill:#585da9;fill-opacity:1"><path
         inkscape:connector-curvature="0"
         id="path118"
         style="fill:#585da9;fill-opacity:1;fill-rule:nonzero;stroke:none"
         d="m 308.9897,483.6969 14.3634,-0.009 10.8423,-24.8278 c -0.9666,-2.27 -1.5021,-4.7682 -1.5021,-7.3911 0,-8.1844 5.2084,-15.152 12.4906,-17.7718 l 6.3907,-14.6344 6.391,14.6339 c 7.283,2.6192 12.492,9.5873 12.492,17.7723 0,2.6232 -0.5352,5.1211 -1.5021,7.3914 l 10.8428,24.8275 14.3629,0.009 -36.2106,-85.1712 -12.7509,0 -36.21,85.1712 z" /><path
         inkscape:connector-curvature="0"
         id="path120"
         style="fill:#585da9;fill-opacity:1;fill-rule:evenodd;stroke:none"
         d="m 351.8938,460.8887 c 5.6406,0 10.2138,-4.5728 10.2138,-10.2135 0,-5.6406 -4.5732,-10.2138 -10.2138,-10.2138 -5.6407,0 -10.2135,4.5732 -10.2135,10.2138 0,5.6407 4.5728,10.2135 10.2135,10.2135" /><g
         transform="matrix(1,0,0,-1,421.8219,398.4409)"
         style="font-variant:normal;font-weight:500;font-size:126.30500031px;font-family:Run;-inkscape-font-specification:Run-Medium;writing-mode:lr-tb;fill:#585da9;fill-opacity:1;fill-rule:nonzero;stroke:none"
         id="text122"><path
           d="m 4.04176,-45.343495 q 0,-6.56786 2.77871,-10.230705 2.77871,-3.78915 6.06264,-5.683725 3.915455,-2.27349 8.84135,-2.77871 l 17.6827,0 0,15.282905 -11.87267,0 q -2.5261,0 -4.168065,0.884135 -1.51566,0.884135 -2.399795,1.894575 -1.01044,1.26305 -1.389355,2.77871 l 0,43.19631 -15.535515,0 0,-45.343495 z"
           style="fill:#585da9;fill-opacity:1"
           id="path4155" /></g><path
         inkscape:connector-curvature="0"
         id="path126"
         style="fill:#585da9;fill-opacity:1;fill-rule:nonzero;stroke:none"
         d="m 485.7911,447.1639 0,-27.8827 c 0,-1.0411 0.6993,-1.9505 1.3892,-2.7785 0.5732,-0.6877 1.4106,-1.3053 2.4631,-1.8947 1.0525,-0.5896 2.4208,-0.8841 4.1048,-0.8841 l 9.5993,0 0,-15.283 -15.4092,0 c -3.2839,0.3368 -6.2311,1.2631 -8.8415,2.7788 -2.1892,1.2629 -4.1891,3.1368 -5.9993,5.6206 -1.8102,2.484 -2.7155,5.9153 -2.7155,10.2937 l 0,66.5714 15.4091,0 0,-21.2276 14.525,0 0,-15.3139 -14.525,0 z" /><g
         transform="matrix(1,0,0,-1,507.0722,398.4409)"
         style="font-variant:normal;font-weight:500;font-size:126.30500031px;font-family:Run;-inkscape-font-specification:Run-Medium;writing-mode:lr-tb;fill:#585da9;fill-opacity:1;fill-rule:nonzero;stroke:none"
         id="text128"><path
           d="m 32.207775,1.26305 q -0.378915,0 -2.77871,-0.126305 Q 27.155575,1.01044 23.99795,0 q -3.157625,-0.884135 -6.694165,-2.905015 -3.53654,-2.02088 -6.56786,-5.81003 -3.03132,-3.78915 -5.0522,-9.472875 Q 3.78915,-23.99795 3.78915,-32.460385 l 0,-31.57625 15.40921,0 0,31.57625 q 0,2.77871 0.50522,5.683725 0.50522,2.905015 1.894575,5.30481 1.389355,2.399795 3.915455,4.04176 2.5261,1.51566 6.694165,1.51566 4.168065,0 6.694165,-1.51566 2.5261,-1.641965 3.915455,-4.04176 1.389355,-2.399795 1.894575,-5.30481 0.50522,-2.905015 0.50522,-5.683725 l 0,-31.57625 15.40921,0 0,31.57625 q 0,8.462435 -2.02088,14.272465 -1.894575,5.683725 -4.925895,9.472875 -3.03132,3.78915 -6.56786,5.81003 Q 43.575225,-0.884135 40.4176,0 37.259975,1.01044 34.86018,1.136745 32.58669,1.26305 32.207775,1.26305 Z"
           style="fill:#585da9;fill-opacity:1"
           id="path4158" /></g><path
         inkscape:connector-curvature="0"
         id="path134"
         style="fill:#585da9;fill-opacity:1;fill-rule:nonzero;stroke:none"
         d="m 416.677,462.4778 0,-64.0369 -15.4091,0 0,64.0369 15.4091,0 z" /><path
         inkscape:connector-curvature="0"
         id="path136"
         style="fill:#585da9;fill-opacity:1;fill-rule:nonzero;stroke:none"
         d="m 416.677,469.8034 0,13.8935 -15.4091,0 0,-13.8935 15.4091,0 z" /><g
         transform="matrix(1,0,0,-1,572.3382,398.4409)"
         style="font-variant:normal;font-weight:500;font-size:126.30500031px;font-family:Run;-inkscape-font-specification:Run-Medium;writing-mode:lr-tb;fill:#585da9;fill-opacity:1;fill-rule:nonzero;stroke:none"
         id="text140"><path
           d="m 63.40511,0 -15.030295,0 0,-8.84135 2.77871,-3.662845 q -2.147185,5.30481 -5.431115,8.08352 -3.28393,2.77871 -6.441555,4.04176 Q 35.61801,1.01044 31.702555,1.26305 23.871645,1.136745 17.809005,-2.27349 15.1566,-3.78915 12.6305,-6.06264 10.230705,-8.462435 8.209825,-11.998975 6.31525,-15.535515 5.0522,-20.46141 3.915455,-25.387305 3.915455,-31.955165 q 0,-6.56786 1.26305,-11.493755 1.26305,-4.925895 3.28393,-8.462435 2.147185,-3.662845 4.79959,-6.06264 2.77871,-2.399795 5.55742,-3.915455 6.56786,-3.53654 15.030295,-3.78915 7.957215,0 13.514635,2.399795 5.55742,2.27349 9.09396,6.694165 3.662845,4.29437 5.30481,10.60962 1.641965,6.188945 1.641965,14.14616 L 63.40511,0 Z M 33.84974,-50.77461 q -4.673285,0 -7.5783,1.894575 -2.77871,1.894575 -4.29437,4.79959 -1.51566,2.77871 -2.02088,6.06264 -0.50522,3.28393 -0.50522,6.06264 0,2.77871 0.50522,6.06264 0.50522,3.28393 2.02088,6.188945 1.51566,2.77871 4.29437,4.673285 2.905015,1.894575 7.5783,1.894575 4.673285,0 7.451995,-1.894575 2.905015,-1.894575 4.420675,-4.673285 1.641965,-2.905015 2.147185,-6.188945 0.50522,-3.28393 0.50522,-6.06264 0,-3.410235 -0.50522,-6.694165 -0.378915,-3.410235 -1.894575,-6.06264 -1.389355,-2.77871 -4.29437,-4.420675 -2.905015,-1.641965 -7.83091,-1.641965 z"
           style="fill:#585da9;fill-opacity:1"
           id="path4161" /></g><g
         transform="matrix(1,0,0,-1,640.5094,398.4409)"
         style="font-variant:normal;font-weight:500;font-size:126.30500031px;font-family:Run;-inkscape-font-specification:Run-Medium;writing-mode:lr-tb;fill:#585da9;fill-opacity:1;fill-rule:nonzero;stroke:none"
         id="text144"><path
           d="m 48.374815,-31.955165 q 0,-3.410235 -0.50522,-6.694165 -0.378915,-3.410235 -1.894575,-6.06264 -1.389355,-2.77871 -4.29437,-4.420675 -2.905015,-1.641965 -7.83091,-1.641965 -4.673285,0 -7.5783,1.894575 -2.77871,1.894575 -4.29437,4.79959 -1.51566,2.77871 -2.02088,6.06264 -0.50522,3.28393 -0.50522,6.06264 0,2.77871 0.50522,6.06264 0.50522,3.28393 2.02088,6.188945 1.51566,2.77871 4.29437,4.673285 2.905015,1.894575 7.5783,1.894575 4.673285,0 7.451995,-1.894575 2.905015,-1.894575 4.420675,-4.673285 1.641965,-2.905015 2.147185,-6.188945 0.50522,-3.28393 0.50522,-6.06264 z M 33.84974,-65.6786 q 7.957215,0 13.514635,2.27349 5.55742,2.27349 9.09396,6.694165 3.662845,4.29437 5.30481,10.60962 1.641965,6.188945 1.641965,14.14616 l 0,28.79754 q 0,3.78915 -0.50522,6.946775 -0.378915,3.28393 -1.136745,6.06264 -1.136745,4.168065 -3.78915,7.5783 -2.5261,3.53654 -6.56786,6.06264 -4.04176,2.5261 -9.59918,3.915455 -5.55742,1.389355 -12.756805,1.389355 l -16.798565,-0.126305 0,-14.272465 13.64094,0 q 8.58874,0 13.13572,-1.76827 4.54698,-1.76827 6.56786,-4.29437 2.147185,-2.399795 2.399795,-4.925895 0.378915,-2.5261 0.378915,-3.915455 l 0,-8.33613 2.77871,-3.662845 q -2.147185,5.30481 -5.431115,8.08352 -3.28393,2.77871 -6.441555,4.04176 Q 35.61801,1.01044 31.702555,1.26305 23.871645,1.136745 17.809005,-2.27349 15.1566,-3.78915 12.6305,-6.06264 10.230705,-8.462435 8.209825,-11.998975 6.31525,-15.535515 5.0522,-20.46141 3.915455,-25.387305 3.915455,-31.955165 q 0,-6.56786 1.26305,-11.493755 1.26305,-4.925895 3.28393,-8.462435 2.147185,-3.662845 4.79959,-6.06264 2.77871,-2.399795 5.55742,-3.915455 6.56786,-3.53654 15.030295,-3.78915 z"
           style="fill:#585da9;fill-opacity:1"
           id="path4164" /></g><g
         transform="matrix(1,0,0,-1,708.6498,398.4409)"
         style="font-variant:normal;font-weight:500;font-size:126.30500031px;font-family:Run;-inkscape-font-specification:Run-Medium;writing-mode:lr-tb;fill:#585da9;fill-opacity:1;fill-rule:nonzero;stroke:none"
         id="text148"><path
           d="m 3.53654,-31.955165 q 0,-6.56786 1.26305,-11.493755 1.26305,-4.925895 3.28393,-8.462435 2.147185,-3.662845 4.79959,-6.06264 2.77871,-2.399795 5.55742,-3.915455 6.56786,-3.53654 15.030295,-3.78915 8.33613,0.25261 14.90399,3.78915 2.77871,1.51566 5.431115,3.915455 2.77871,2.399795 4.79959,6.06264 2.147185,3.53654 3.410235,8.462435 1.389355,4.925895 1.389355,11.493755 0,6.56786 -1.389355,11.493755 -1.26305,4.925895 -3.410235,8.462435 -2.02088,3.53654 -4.79959,5.936335 -2.652405,2.27349 -5.431115,3.78915 -6.56786,3.410235 -14.90399,3.53654 Q 25.00839,1.136745 18.44053,-2.27349 15.66182,-3.78915 12.88311,-6.06264 10.230705,-8.462435 8.08352,-11.998975 6.06264,-15.535515 4.79959,-20.46141 3.53654,-25.387305 3.53654,-31.955165 Z M 33.470825,-50.77461 q -4.673285,0 -7.5783,1.894575 -2.77871,1.894575 -4.29437,4.79959 -1.51566,2.77871 -2.02088,6.06264 -0.50522,3.28393 -0.50522,6.06264 0,2.77871 0.50522,6.06264 0.50522,3.28393 2.02088,6.188945 1.51566,2.77871 4.29437,4.673285 2.905015,1.894575 7.5783,1.894575 4.673285,0 7.451995,-1.894575 2.905015,-1.894575 4.420675,-4.673285 1.51566,-2.905015 2.02088,-6.188945 0.50522,-3.28393 0.50522,-6.06264 0,-2.77871 -0.50522,-6.06264 -0.50522,-3.28393 -2.02088,-6.06264 -1.51566,-2.905015 -4.420675,-4.79959 -2.77871,-1.894575 -7.451995,-1.894575 z"
           style="fill:#585da9;fill-opacity:1"
           id="path4167" /></g><g
         transform="matrix(1,0,0,-1,776.1586,398.4409)"
         style="font-variant:normal;font-weight:500;font-size:126.30500031px;font-family:Run;-inkscape-font-specification:Run-Medium;writing-mode:lr-tb;fill:#585da9;fill-opacity:1;fill-rule:nonzero;stroke:none"
         id="text152"><path
           d="m 4.04176,-45.343495 q 0,-6.56786 2.77871,-10.230705 2.77871,-3.78915 6.06264,-5.683725 3.915455,-2.27349 8.84135,-2.77871 l 17.6827,0 0,15.282905 -11.87267,0 q -2.5261,0 -4.168065,0.884135 -1.51566,0.884135 -2.399795,1.894575 -1.01044,1.26305 -1.389355,2.77871 l 0,43.19631 -15.535515,0 0,-45.343495 z"
           style="fill:#585da9;fill-opacity:1"
           id="path4170" /></g><g
         transform="matrix(1,0,0,-1,818.1564,398.4409)"
         style="font-variant:normal;font-weight:500;font-size:126.30500031px;font-family:Run;-inkscape-font-specification:Run-Medium;writing-mode:lr-tb;fill:#585da9;fill-opacity:1;fill-rule:nonzero;stroke:none"
         id="text156"><path
           d="m 63.40511,0 -15.030295,0 0,-8.84135 2.77871,-3.662845 q -2.147185,5.30481 -5.431115,8.08352 -3.28393,2.77871 -6.441555,4.04176 Q 35.61801,1.01044 31.702555,1.26305 23.871645,1.136745 17.809005,-2.27349 15.1566,-3.78915 12.6305,-6.06264 10.230705,-8.462435 8.209825,-11.998975 6.31525,-15.535515 5.0522,-20.46141 3.915455,-25.387305 3.915455,-31.955165 q 0,-6.56786 1.26305,-11.493755 1.26305,-4.925895 3.28393,-8.462435 2.147185,-3.662845 4.79959,-6.06264 2.77871,-2.399795 5.55742,-3.915455 6.56786,-3.53654 15.030295,-3.78915 7.957215,0 13.514635,2.399795 5.55742,2.27349 9.09396,6.694165 3.662845,4.29437 5.30481,10.60962 1.641965,6.188945 1.641965,14.14616 L 63.40511,0 Z M 33.84974,-50.77461 q -4.673285,0 -7.5783,1.894575 -2.77871,1.894575 -4.29437,4.79959 -1.51566,2.77871 -2.02088,6.06264 -0.50522,3.28393 -0.50522,6.06264 0,2.77871 0.50522,6.06264 0.50522,3.28393 2.02088,6.188945 1.51566,2.77871 4.29437,4.673285 2.905015,1.894575 7.5783,1.894575 4.673285,0 7.451995,-1.894575 2.905015,-1.894575 4.420675,-4.673285 1.641965,-2.905015 2.147185,-6.188945 0.50522,-3.28393 0.50522,-6.06264 0,-3.410235 -0.50522,-6.694165 -0.378915,-3.410235 -1.894575,-6.06264 -1.389355,-2.77871 -4.29437,-4.420675 -2.905015,-1.641965 -7.83091,-1.641965 z"
           style="fill:#585da9;fill-opacity:1"
           id="path4173" /></g><path
         inkscape:connector-curvature="0"
         id="path160"
         style="fill:#585da9;fill-opacity:1;fill-rule:nonzero;stroke:none"
         d="m 617.8065,469.6829 -15.3391,0 5.3679,14.0142 15.3392,0 -5.368,-14.0142 z" /></g></g></svg>